# xmcd
# Track frame offsets:
# 150
# 10667
# 20670
# 33190
# 43137
# 54012
# 64612
# 77047
# 88330
# 101767
# 113232
# 124240
# 135857
# 148797
# 162620
# 173500
# 186245
# 198402
# 209040
# 221380
# 231645
# 243067
# 253087
# 265497
# 278395
# 289397
# 297917
# 311240
# 322127
#
# Disc length: 4402 seconds
# Revision: 0
# Processed by: cddbd v1.5PL3 Copyright (c) Steve Scherf et al.
# Submitted via: VisiTrax 2.9.5.181 - For more info visit www.synapsa.com
#
DISCID=ba11301d
DTITLE=Willie Nelson - It's Been Rough and Rocky Travelin'  The Earliest WIll
DTITLE=ie Nelson 1954 - 1963  (2 of 3)
DYEAR=2003
DGENRE=
TTITLE0=The Part Where I Cry
TTITLE1=Touch Me
TTITLE2=Mr. Record Man
TTITLE3=Go Away
TTITLE4=The Waiting Time
TTITLE5=Where My House Lives
TTITLE6=Country Willie
TTITLE7=How Long Is Forever [Version 1]
TTITLE8=Three Days
TTITLE9=Darkness on the Face of the Earth
TTITLE10=One Step Beyond
TTITLE11=Undo the Right
TTITLE12=Crazy
TTITLE13=Funny How Time Slips Away
TTITLE14=Hello Walls
TTITLE15=Wake Me When It's Over
TTITLE16=Our Chain of Love
TTITLE17=Is This My Destiny?
TTITLE18=Willingly
TTITLE19=You Dream About Me
TTITLE20=There Goes a Man
TTITLE21=There's Gonna Be Love in My House Tonight
TTITLE22=You Wouldn't Cross the Street to Say Goodbye
TTITLE23=How Long Is Forever [Version 2]
TTITLE24=Half a Man
TTITLE25=Take My Word [Version 1]
TTITLE26=The Last Letter
TTITLE27=Home Motel
TTITLE28=Take My Word [Version 2]
EXTD=JEK  Bear Family Records BCD 16664 c. 2003
EXTT0=
EXTT1=
EXTT2=
EXTT3=
EXTT4=
EXTT5=
EXTT6=
EXTT7=
EXTT8=
EXTT9=
EXTT10=
EXTT11=
EXTT12=
EXTT13=
EXTT14=
EXTT15=
EXTT16=
EXTT17=
EXTT18=
EXTT19=
EXTT20=
EXTT21=
EXTT22=
EXTT23=
EXTT24=
EXTT25=
EXTT26=
EXTT27=
EXTT28=
PLAYORDER=
